0
SECTION
2
HEADER
9
$INSUNITS
70
4
9
$ACADVER
1
AC1014
9
$HANDSEED
5
FFFF
0
ENDSEC
0
SECTION
2
TABLES
0
TABLE
2
VPORT
5
8
100
AcDbSymbolTable
0
ENDTAB
0
TABLE
2
LTYPE
5
5
100
AcDbSymbolTable
0
LTYPE
5
14
100
AcDbSymbolTableRecord
100
AcDbLinetypeTableRecord
2
BYBLOCK
70
0
0
LTYPE
5
15
100
AcDbSymbolTableRecord
100
AcDbLinetypeTableRecord
2
BYLAYER
70
0
0
ENDTAB
0
TABLE
2
LAYER
5
2
100
AcDbSymbolTable
70
2
0
LAYER
5
50
100
AcDbSymbolTableRecord
100
AcDbLayerTableRecord
2
0
70
0
6
CONTINUOUS
0
ENDTAB
0
TABLE
2
STYLE
5
3
100
AcDbSymbolTable
70
1
0
STYLE
5
11
100
AcDbSymbolTableRecord
100
AcDbTextStyleTableRecord
2
STANDARD
70
0
0
ENDTAB
0
TABLE
2
VIEW
5
6
100
AcDbSymbolTable
70
0
0
ENDTAB
0
TABLE
2
UCS
5
7
100
AcDbSymbolTable
70
0
0
ENDTAB
0
TABLE
2
APPID
5
9
100
AcDbSymbolTable
70
2
0
APPID
5
12
100
AcDbSymbolTableRecord
100
AcDbRegAppTableRecord
2
ACAD
70
0
0
ENDTAB
0
TABLE
2
DIMSTYLE
5
A
100
AcDbSymbolTable
70
1
0
ENDTAB
0
TABLE
2
BLOCK_RECORD
5
1
100
AcDbSymbolTable
70
1
0
BLOCK_RECORD
5
1F
100
AcDbSymbolTableRecord
100
AcDbBlockTableRecord
2
*MODEL_SPACE
0
BLOCK_RECORD
5
1B
100
AcDbSymbolTableRecord
100
AcDbBlockTableRecord
2
*PAPER_SPACE
0
ENDTAB
0
ENDSEC
0
SECTION
2
BLOCKS
0
BLOCK
5
20
100
AcDbEntity
100
AcDbBlockBegin
2
*MODEL_SPACE
0
ENDBLK
5
21
100
AcDbEntity
100
AcDbBlockEnd
0
BLOCK
5
1C
100
AcDbEntity
100
AcDbBlockBegin
2
*PAPER_SPACE
0
ENDBLK
5
1D
100
AcDbEntity
100
AcDbBlockEnd
0
ENDSEC
0
SECTION
2
ENTITIES
0
LWPOLYLINE
5
100
100
AcDbEntity
8
0
100
AcDbPolyline
90
8
70
1
43
0.0
10
178.01500000000001
20
-44.025000000000006
42
0.41421356237309509
10
178.51500000000001
20
-44.525000000000006
10
206.935
20
-44.525000000000006
42
0.41421356237309509
10
207.435
20
-44.025000000000006
10
207.435
20
-30.325000000000006
42
0.41421356237309509
10
206.935
20
-29.82500000000001
10
178.51500000000001
20
-29.824999999999999
42
0.41421356237309509
10
178.01500000000001
20
-30.325000000000006
0
CIRCLE
5
101
100
AcDbEntity
8
0
100
AcDbCircle
10
179.05000000000001
20
-59.975000000000009
30
0
40
0.89999999999999991
210
0
220
0
230
1
0
CIRCLE
5
102
100
AcDbEntity
8
0
100
AcDbCircle
10
190.22500000000002
20
-59.975000000000009
30
0
40
0.89999999999999991
210
0
220
0
230
1
0
CIRCLE
5
103
100
AcDbEntity
8
0
100
AcDbCircle
10
179.05000000000001
20
-72.224999999999994
30
0
40
0.89999999999999991
210
0
220
0
230
1
0
LWPOLYLINE
5
104
100
AcDbEntity
8
0
100
AcDbPolyline
90
4
70
1
43
0.0
10
180.65000000000001
20
-68.575000000000003
10
180.65000000000001
20
-65.774999999999991
10
177.45000000000002
20
-65.775000000000006
10
177.45000000000002
20
-68.575000000000003
0
LINE
5
105
100
AcDbEntity
8
0
100
AcDbLine
10
167.77500000000001
20
-22.75
30
0
11
167.77500000000001
21
-17.75
31
0
0
LINE
5
106
100
AcDbEntity
8
0
100
AcDbLine
10
167.77500000000001
20
-17.75
30
0
11
217.77500000000003
21
-17.75
31
0
0
LINE
5
107
100
AcDbEntity
8
0
100
AcDbLine
10
217.77500000000003
20
-17.75
30
0
11
217.77500000000003
21
-75.799999999999997
31
0
0
LINE
5
108
100
AcDbEntity
8
0
100
AcDbLine
10
217.77500000000003
20
-75.799999999999997
30
0
11
197.77500000000003
21
-75.799999999999997
31
0
0
LINE
5
109
100
AcDbEntity
8
0
100
AcDbLine
10
187.77500000000001
20
-75.799999999999997
30
0
11
167.77500000000001
21
-75.799999999999997
31
0
0
LINE
5
110
100
AcDbEntity
8
0
100
AcDbLine
10
167.77500000000001
20
-75.799999999999997
30
0
11
167.77500000000001
21
-70.799999999999997
31
0
0
LINE
5
111
100
AcDbEntity
8
0
100
AcDbLine
10
167.77500000000001
20
-65.799999999999997
30
0
11
167.77500000000001
21
-49.275000000000006
31
0
0
LINE
5
112
100
AcDbEntity
8
0
100
AcDbLine
10
167.77500000000001
20
-44.275000000000006
30
0
11
167.77500000000001
21
-27.750000000000004
31
0
0
LINE
5
113
100
AcDbEntity
8
0
100
AcDbLine
10
167.77500000000001
20
-22.75
30
0
11
167.77500000000001
21
-27.750000000000004
31
0
0
LINE
5
114
100
AcDbEntity
8
0
100
AcDbLine
10
167.77500000000001
20
-44.275000000000006
30
0
11
167.77500000000001
21
-49.275000000000006
31
0
0
LINE
5
115
100
AcDbEntity
8
0
100
AcDbLine
10
167.77500000000001
20
-65.799999999999997
30
0
11
167.77500000000001
21
-70.799999999999997
31
0
0
LINE
5
116
100
AcDbEntity
8
0
100
AcDbLine
10
187.77500000000001
20
-75.799999999999997
30
0
11
197.77500000000003
21
-75.799999999999997
31
0
0
CIRCLE
5
117
100
AcDbEntity
8
0
100
AcDbCircle
10
204.65503921254998
20
-60.150863502589011
30
0
40
3.6250000000000004
210
0
220
0
230
1
0
CIRCLE
5
118
100
AcDbEntity
8
0
100
AcDbCircle
10
190.22500000000002
20
-59.975000000000009
30
0
40
5
210
0
220
0
230
1
0
CIRCLE
5
119
100
AcDbEntity
8
0
100
AcDbCircle
10
179.05000000000001
20
-59.975000000000009
30
0
40
5
210
0
220
0
230
1
0
LINE
5
120
100
AcDbEntity
8
0
100
AcDbLine
10
179.05000000000001
20
-65.775000000000006
30
0
11
179.05000000000001
21
-68.575000000000003
31
0
0
CIRCLE
5
121
100
AcDbEntity
8
0
100
AcDbCircle
10
179.05000000000001
20
-67.174999999999997
30
0
40
1.0000000000000142
210
0
220
0
230
1
0
CIRCLE
5
122
100
AcDbEntity
8
0
100
AcDbCircle
10
179.05000000000001
20
-72.224999999999994
30
0
40
3.75
210
0
220
0
230
1
0
CIRCLE
5
123
100
AcDbEntity
8
0
100
AcDbCircle
10
204.65503921254998
20
-60.150863502589011
30
0
40
10.000000000000011
210
0
220
0
230
1
0
LINE
5
124
100
AcDbEntity
8
0
100
AcDbLine
10
167.27500000000003
20
-94.575000000000017
30
0
11
117.27500000000001
21
-94.575000000000017
31
0
0
LINE
5
125
100
AcDbEntity
8
0
100
AcDbLine
10
167.77500000000001
20
-75.799999999999997
30
0
11
167.77500000000001
21
-94.575000000000017
31
0
0
LINE
5
126
100
AcDbEntity
8
0
100
AcDbLine
10
167.77500000000001
20
-94.575000000000017
30
0
11
217.77500000000003
21
-94.575000000000017
31
0
0
LINE
5
127
100
AcDbEntity
8
0
100
AcDbLine
10
217.77500000000003
20
-94.575000000000017
30
0
11
217.77500000000003
21
-75.799999999999997
31
0
0
ENDSEC
0
SECTION
2
OBJECTS
0
DICTIONARY
5
C
100
AcDbDictionary
3
ACAD_GROUP
350
D
3
ACAD_MLINESTYLE
350
17
0
DICTIONARY
5
D
100
AcDbDictionary
0
DICTIONARY
5
1A
330
C
100
AcDbDictionary
0
DICTIONARY
5
17
100
AcDbDictionary
0
ENDSEC
0
EOF
